<?xml version="1.0" standalone="no"?>
<!DOCTYPE svg PUBLIC "-//W3C//DTD SVG 20010904//EN"
 "http://www.w3.org/TR/2001/REC-SVG-20010904/DTD/svg10.dtd">
<svg version="1.0" xmlns="http://www.w3.org/2000/svg"
 width="512.000000pt" height="512.000000pt" viewBox="0 0 512.000000 512.000000"
 preserveAspectRatio="xMidYMid meet">

<g transform="translate(0.000000,512.000000) scale(0.100000,-0.100000)"
fill="#000000" stroke="none">
<path d="M2380 4625 c-252 -43 -500 -180 -660 -365 -391 -455 -369 -1111 50
-1530 418 -418 1076 -440 1527 -52 140 120 268 315 326 493 169 518 -61 1086
-541 1337 -220 115 -471 156 -702 117z m303 -316 c429 -66 730 -472 668 -899
-84 -571 -719 -871 -1208 -570 -280 172 -430 506 -369 822 84 432 479 713 909
647z"/>
<path d="M3613 2559 c-23 -11 -51 -35 -61 -52 -51 -85 -37 -140 65 -250 224
-244 358 -554 379 -883 9 -131 0 -157 -80 -232 -306 -286 -1206 -420 -1961
-291 -327 55 -616 166 -745 285 -84 79 -94 105 -86 232 20 327 154 645 371
879 80 88 99 123 92 181 -12 107 -133 176 -225 128 -38 -20 -148 -136 -220
-234 -204 -275 -321 -606 -339 -957 -9 -190 25 -289 146 -418 429 -456 1754
-611 2670 -311 251 82 434 186 553 313 120 127 154 226 145 416 -22 422 -191
822 -471 1114 -100 104 -150 121 -233 80z"/>
</g>
</svg>
