<?xml version="1.0" standalone="no"?>
<!DOCTYPE svg PUBLIC "-//W3C//DTD SVG 20010904//EN"
 "http://www.w3.org/TR/2001/REC-SVG-20010904/DTD/svg10.dtd">
<svg version="1.0" xmlns="http://www.w3.org/2000/svg"
 width="512.000000pt" height="512.000000pt" viewBox="0 0 512.000000 512.000000"
 preserveAspectRatio="xMidYMid meet">

<g transform="translate(0.000000,512.000000) scale(0.100000,-0.100000)"
fill="#000000" stroke="none">
<path d="M3760 4764 c-14 -2 -52 -9 -85 -15 -88 -15 -179 -46 -275 -95 -110
-55 -167 -97 -263 -191 -137 -136 -232 -303 -280 -493 -31 -122 -31 -358 0
-480 76 -300 274 -550 543 -685 168 -84 284 -110 480 -109 170 1 282 26 425
93 398 186 645 619 595 1042 -61 528 -475 916 -995 934 -66 2 -131 2 -145 -1z
m305 -235 c370 -89 625 -416 625 -799 0 -358 -222 -667 -559 -780 -457 -153
-936 106 -1062 575 -30 112 -30 297 0 410 115 439 555 701 996 594z"/>
<path d="M3832 4229 c-61 -18 -72 -52 -72 -231 l0 -158 -150 0 c-108 0 -160
-4 -185 -14 -35 -15 -65 -59 -65 -96 0 -37 30 -81 65 -96 25 -10 77 -14 185
-14 l150 0 0 -155 c0 -178 8 -207 67 -231 43 -19 93 -5 123 33 18 23 20 40 20
189 l0 162 171 4 171 3 29 33 c34 38 39 93 13 131 -30 42 -71 51 -234 51
l-150 0 0 163 c0 181 -5 198 -66 223 -18 8 -35 14 -36 13 -2 0 -18 -5 -36 -10z"/>
<path d="M525 4176 c-116 -28 -212 -101 -261 -198 -54 -107 -54 -87 -54 -1363
0 -725 4 -1203 10 -1240 21 -132 116 -257 240 -318 l64 -32 218 -3 218 -3 0
-260 c0 -211 3 -267 15 -296 21 -50 42 -72 90 -94 51 -24 90 -23 140 0 22 10
202 161 400 335 l360 315 995 3 995 3 66 32 c125 62 216 184 239 323 7 42 10
236 8 553 l-3 489 -33 29 c-45 40 -99 40 -144 0 l-33 -29 -5 -530 -5 -529 -29
-41 c-18 -26 -47 -51 -79 -67 l-51 -25 -995 0 c-763 -1 -1001 -4 -1017 -13
-12 -7 -171 -142 -353 -302 -182 -159 -336 -292 -341 -293 -6 -2 -10 94 -10
267 l0 271 -29 32 -29 33 -269 5 c-261 5 -269 6 -310 29 -24 14 -55 42 -70 64
l-28 40 -3 1221 c-2 891 0 1232 8 1261 13 45 50 88 95 113 27 15 124 17 1051
22 981 5 1023 6 1043 24 11 10 25 34 31 52 10 28 8 40 -7 71 -10 21 -29 43
-43 50 -36 18 -2012 17 -2085 -1z"/>
<path d="M913 3304 c-39 -19 -67 -74 -58 -114 8 -38 48 -76 86 -84 18 -3 366
-6 776 -6 815 0 796 -1 827 59 20 38 20 64 0 102 -31 60 -11 59 -841 59 -668
0 -762 -2 -790 -16z"/>
<path d="M913 2664 c-39 -19 -67 -74 -58 -114 8 -38 48 -76 86 -84 18 -3 486
-6 1041 -6 1086 0 1055 -1 1092 51 21 30 21 88 0 118 -37 53 -5 51 -1106 51
-909 0 -1027 -2 -1055 -16z"/>
<path d="M913 2024 c-39 -19 -67 -74 -58 -114 8 -38 48 -76 86 -84 18 -3 366
-6 776 -6 815 0 796 -1 827 59 20 38 20 64 0 102 -31 60 -11 59 -841 59 -668
0 -762 -2 -790 -16z"/>
</g>
</svg>
