<svg id="SvgjsSvg1023" width="256" height="256" xmlns="http://www.w3.org/2000/svg" version="1.1" xmlns:xlink="http://www.w3.org/1999/xlink" xmlns:svgjs="http://svgjs.com/svgjs"><defs id="SvgjsDefs1024"></defs><g id="SvgjsG1025"><svg xmlns="http://www.w3.org/2000/svg" data-name="Layer 1" viewBox="0 0 64 64" width="256" height="256"><path d="M56.21,22.09l-.64-.77a5.61,5.61,0,0,1-1.3-4.12l.09-1a7.74,7.74,0,0,0-5.9-8.15L48.07,8a5.67,5.67,0,0,1-3.64-2.73l-.19-.33a7.69,7.69,0,0,0-9.89-3.22,5.67,5.67,0,0,1-4.7,0,7.69,7.69,0,0,0-9.89,3.22l-.18.33A5.71,5.71,0,0,1,15.92,8l-.38.1a7.73,7.73,0,0,0-5.9,8.14l.09,1a5.62,5.62,0,0,1-1.3,4.13l-.64.77a7.65,7.65,0,0,0,0,9.84l.64.77a5.61,5.61,0,0,1,1.3,4.12l-.09,1A7.74,7.74,0,0,0,15.54,46l.39.08a5.72,5.72,0,0,1,3.28,2.19l-3.92,3.92a1,1,0,0,0,.47,1.68l5.13,1.28,1.28,5.13a1,1,0,0,0,.71.72.82.82,0,0,0,.26,0,1,1,0,0,0,.72-.3l8.64-8.78L43.15,62.7a1,1,0,0,0,.71.3.82.82,0,0,0,.26,0,1,1,0,0,0,.71-.72l1.28-5.13,5.13-1.28a1,1,0,0,0,.47-1.68l-6.47-6.46a5.6,5.6,0,0,1,2.84-1.64l.38-.1a7.73,7.73,0,0,0,5.9-8.14l-.09-1a5.61,5.61,0,0,1,1.3-4.12l.64-.77A7.65,7.65,0,0,0,56.21,22.09ZM23.68,58l-1-4a1,1,0,0,0-.72-.72l-4-1L20.32,50a7.65,7.65,0,0,0,8.75,2.6ZM49,54.32l-4,1a1,1,0,0,0-.72.72l-1,4-7-7.13a7.9,7.9,0,0,0,1.27.12,7.66,7.66,0,0,0,6.53-3.67Zm5.64-23.67-.64.76A7.58,7.58,0,0,0,52.28,37l.08,1A5.71,5.71,0,0,1,48,44l-.39.09a7.71,7.71,0,0,0-4.92,3.69l-.19.33a5.69,5.69,0,0,1-7.32,2.38,7.75,7.75,0,0,0-6.36,0,5.68,5.68,0,0,1-7.32-2.38L21.45,48a.9.9,0,0,0-.23-.4h0a7.73,7.73,0,0,0-4.82-3.53L16,44a5.71,5.71,0,0,1-4.36-6l.08-1A7.58,7.58,0,0,0,10,31.41l-.64-.76a5.68,5.68,0,0,1,0-7.28l.64-.76A7.59,7.59,0,0,0,11.72,17l-.08-1A5.71,5.71,0,0,1,16,10l.39-.09a7.71,7.71,0,0,0,4.92-3.69l.19-.33a5.67,5.67,0,0,1,7.32-2.38,7.75,7.75,0,0,0,6.36,0A5.69,5.69,0,0,1,42.5,5.9l.19.33a7.71,7.71,0,0,0,4.92,3.69L48,10a5.71,5.71,0,0,1,4.36,6l-.08,1A7.62,7.62,0,0,0,54,22.61l.64.76A5.68,5.68,0,0,1,54.68,30.65ZM32,9A18,18,0,1,0,50,27,18,18,0,0,0,32,9Zm0,34A16,16,0,1,1,48,27,16,16,0,0,1,32,43ZM42.71,20.3a1,1,0,0,1,0,1.42l-12,12A1,1,0,0,1,30,34a1,1,0,0,1-.62-.22l-5-4a1,1,0,1,1,1.24-1.56l4.31,3.44L41.29,20.3A1,1,0,0,1,42.71,20.3Z" fill="#000000" class="color000 svgShape"></path></svg></g></svg>