<svg id="SvgjsSvg1016" width="256" height="256" xmlns="http://www.w3.org/2000/svg" version="1.1" xmlns:xlink="http://www.w3.org/1999/xlink" xmlns:svgjs="http://svgjs.com/svgjs"><defs id="SvgjsDefs1017"></defs><g id="SvgjsG1018"><svg xmlns="http://www.w3.org/2000/svg" viewBox="0 0 16 16" width="256" height="256"><g data-name="21" fill="#000000" class="color000 svgShape"><path d="M8 16a8 8 0 1 1 8-8 8.7 8.7 0 0 1-.19 1.76.5.5 0 0 1-1-.22A7.2 7.2 0 0 0 15 8a7 7 0 1 0-3.76 6.21.5.5 0 1 1 .46.88A7.91 7.91 0 0 1 8 16Z" fill="#000000" class="color000 svgShape"></path><path d="M13.5 14a.5.5 0 0 1-.5-.5v-4a.5.5 0 0 1 1 0v4a.5.5 0 0 1-.5.5zM9 8.65a.44.44 0 0 0 0-.1V3.5a.5.5 0 0 0-1 0v4.73l-2.78 1.85a.51.51 0 0 0-.14.7.52.52 0 0 0 .42.22.57.57 0 0 0 .28-.08l3-2 .07-.07.06-.08zM13.5 16a.5.5 0 0 1-.35-.85.49.49 0 0 1 .54-.11.36.36 0 0 1 .16.11.48.48 0 0 1 0 .7.36.36 0 0 1-.16.11.41.41 0 0 1-.19.04z" fill="#000000" class="color000 svgShape"></path></g></svg></g></svg>