<svg id="SvgjsSvg1028" width="256" height="256" xmlns="http://www.w3.org/2000/svg" version="1.1" xmlns:xlink="http://www.w3.org/1999/xlink" xmlns:svgjs="http://svgjs.com/svgjs"><defs id="SvgjsDefs1029"></defs><g id="SvgjsG1030"><svg xmlns="http://www.w3.org/2000/svg" viewBox="0 0 60 60" width="256" height="256"><path d="M15.481 42.237a18.849 18.849 0 0 0 2.285 2.286 2.02 2.02 0 0 0 2.123.306L22.3 43.8a15.641 15.641 0 0 0 3.4 1.41l.973 2.435a2.063 2.063 0 0 0 1.7 1.28c.563.05 1.127.075 1.676.075s1.083-.025 1.585-.075a2.066 2.066 0 0 0 1.706-1.284l.971-2.431A15.641 15.641 0 0 0 37.7 43.8l2.408 1.028a2.013 2.013 0 0 0 2.125-.306 18.91 18.91 0 0 0 2.285-2.285 2.019 2.019 0 0 0 .3-2.123L43.8 37.7a15.754 15.754 0 0 0 1.409-3.4l2.432-.972a2.056 2.056 0 0 0 1.281-1.693 16.659 16.659 0 0 0 0-3.274 2.061 2.061 0 0 0-1.285-1.706l-2.429-.971A15.754 15.754 0 0 0 43.8 22.3l1.027-2.409a2.018 2.018 0 0 0-.3-2.124 18.851 18.851 0 0 0-2.286-2.286 2.016 2.016 0 0 0-2.123-.306L37.7 16.2a15.641 15.641 0 0 0-3.395-1.41l-.973-2.435a2.063 2.063 0 0 0-1.7-1.28 17.746 17.746 0 0 0-3.261 0 2.066 2.066 0 0 0-1.706 1.284l-.971 2.431a15.641 15.641 0 0 0-3.4 1.41l-2.404-1.028a2.01 2.01 0 0 0-2.124.306 18.927 18.927 0 0 0-2.286 2.285 2.019 2.019 0 0 0-.3 2.123L16.2 22.3a15.754 15.754 0 0 0-1.409 3.4l-2.432.972a2.056 2.056 0 0 0-1.281 1.693 16.72 16.72 0 0 0 0 3.28 2.062 2.062 0 0 0 1.285 1.7l2.429.971A15.754 15.754 0 0 0 16.2 37.7l-1.027 2.409a2.017 2.017 0 0 0 .308 2.128Zm.522-9.6-2.932-1.19a12.662 12.662 0 0 1 .036-2.922L16 27.363a1 1 0 0 0 .6-.688 13.7 13.7 0 0 1 1.573-3.794 1 1 0 0 0 .063-.909l-1.225-2.922a14.174 14.174 0 0 1 2.089-2.039l2.87 1.225a1 1 0 0 0 .909-.063 13.646 13.646 0 0 1 3.796-1.573 1 1 0 0 0 .689-.6l1.194-2.933a13.485 13.485 0 0 1 2.921.036L32.636 16a1 1 0 0 0 .689.6 13.646 13.646 0 0 1 3.792 1.574 1 1 0 0 0 .909.063l2.921-1.228a14.126 14.126 0 0 1 2.038 2.091l-1.224 2.871a1 1 0 0 0 .063.909 13.7 13.7 0 0 1 1.576 3.795 1 1 0 0 0 .6.688l2.932 1.194a12.662 12.662 0 0 1-.036 2.922L44 32.637a1 1 0 0 0-.6.688 13.7 13.7 0 0 1-1.573 3.794 1 1 0 0 0-.063.909l1.227 2.922a14.116 14.116 0 0 1-2.091 2.039l-2.87-1.225a1 1 0 0 0-.909.063 13.646 13.646 0 0 1-3.796 1.573 1 1 0 0 0-.689.6l-1.194 2.933a13.486 13.486 0 0 1-2.921-.036L27.364 44a1 1 0 0 0-.689-.6 13.646 13.646 0 0 1-3.792-1.574 1 1 0 0 0-.517-.143.993.993 0 0 0-.392.08l-2.921 1.229a14.187 14.187 0 0 1-2.038-2.092l1.224-2.871a1 1 0 0 0-.063-.909 13.7 13.7 0 0 1-1.576-3.795 1 1 0 0 0-.6-.688Z" fill="#000000" class="color000 svgShape"></path><path d="M3.015 31a3.012 3.012 0 0 0 2.99-2.779A23.964 23.964 0 0 1 19.654 8.312a2.091 2.091 0 0 0 2 1 2.071 2.071 0 0 0 1.791-1.479l1.144-3.875a2.13 2.13 0 0 0-1.4-2.626L19.341.1a2.061 2.061 0 0 0-2.23.645A2.1 2.1 0 0 0 16.83 3 29.949 29.949 0 0 0 .009 27.771 3.014 3.014 0 0 0 3.015 31zM18.607 4.382A1 1 0 0 0 19.088 3l-.445-.848c-.014-.026-.04-.074.087-.148l3.861 1.234a.136.136 0 0 1 .08.154l-1.209 3.93a.12.12 0 0 1-.106-.065l-.371-.711a1 1 0 0 0-1.285-.452 25.966 25.966 0 0 0-15.689 21.98 1 1 0 0 1-1.741.6.991.991 0 0 1-.27-.755A27.963 27.963 0 0 1 18.607 4.382zM3 43.17a29.949 29.949 0 0 0 24.771 16.821c.074.006.147.008.219.008a3.006 3.006 0 0 0 .231-6A23.964 23.964 0 0 1 8.312 40.346a2.1 2.1 0 0 0 1-2 2.071 2.071 0 0 0-1.479-1.791l-3.872-1.144a2.128 2.128 0 0 0-2.626 1.4L.1 40.659a2.067 2.067 0 0 0 .645 2.23A2.1 2.1 0 0 0 3 43.17zm.238-5.761a.135.135 0 0 1 .154-.08l3.93 1.209a.1.1 0 0 1-.065.106l-.711.371a1 1 0 0 0-.452 1.285 25.966 25.966 0 0 0 21.98 15.691 1 1 0 0 1 .6 1.741.966.966 0 0 1-.756.267 27.963 27.963 0 0 1-23.537-16.6 1 1 0 0 0-.585-.539.985.985 0 0 0-.329-.056 1 1 0 0 0-.467.108l-.848.445c-.026.013-.073.04-.148-.087zm56.753-5.18a3.006 3.006 0 0 0-6-.45 23.964 23.964 0 0 1-13.645 19.909 2.088 2.088 0 0 0-3.791.476l-1.144 3.875a2.13 2.13 0 0 0 1.4 2.626l3.848 1.235a2.07 2.07 0 0 0 2.23-.645A2.1 2.1 0 0 0 43.17 57a29.949 29.949 0 0 0 16.821-24.771zm-18.6 23.389A1 1 0 0 0 40.912 57l.445.848c.014.026.04.074-.087.148l-3.861-1.234a.136.136 0 0 1-.08-.154l1.209-3.93a.12.12 0 0 1 .106.065l.371.711a1 1 0 0 0 1.283.455 25.966 25.966 0 0 0 15.691-21.98 1 1 0 0 1 1.741-.6.991.991 0 0 1 .267.756 27.963 27.963 0 0 1-16.604 23.533zM29.965.805a3 3 0 0 0 1.814 5.2 23.964 23.964 0 0 1 19.909 13.649 2.1 2.1 0 0 0-1 2 2.071 2.071 0 0 0 1.479 1.791l3.875 1.144a2.127 2.127 0 0 0 2.626-1.4l1.232-3.848a2.067 2.067 0 0 0-.645-2.23A2.1 2.1 0 0 0 57 16.83 29.949 29.949 0 0 0 32.229.009a2.955 2.955 0 0 0-2.264.796zm25.653 17.8a1 1 0 0 0 1.382.483l.848-.445c.026-.013.073-.039.148.087l-1.234 3.861a.135.135 0 0 1-.154.08l-3.93-1.209a.1.1 0 0 1 .065-.106l.711-.371a1 1 0 0 0 .455-1.283A25.966 25.966 0 0 0 31.926 4.011a1 1 0 0 1-.6-1.741.989.989 0 0 1 .755-.27 27.963 27.963 0 0 1 23.537 16.607zM26.293 35.707A.993.993 0 0 0 27 36h.056a1 1 0 0 0 .725-.373l8-10a1 1 0 1 0-1.562-1.25l-7.3 9.128-1.21-1.21a1 1 0 0 0-1.414 1.414z" fill="#000000" class="color000 svgShape"></path></svg></g></svg>