<svg id="SvgjsSvg1001" width="256" height="256" xmlns="http://www.w3.org/2000/svg" version="1.1" xmlns:xlink="http://www.w3.org/1999/xlink" xmlns:svgjs="http://svgjs.com/svgjs"><defs id="SvgjsDefs1002"></defs><g id="SvgjsG1008"><svg xmlns="http://www.w3.org/2000/svg" viewBox="0 0 32 32" width="256" height="256"><path d="M8 15H24a3 3 0 0 0 3-3V8a3 3 0 0 0-3-3H8A3 3 0 0 0 5 8v4A3 3 0 0 0 8 15zM7 8A1 1 0 0 1 8 7H24a1 1 0 0 1 1 1v4a1 1 0 0 1-1 1H8a1 1 0 0 1-1-1zM8 27H24a3 3 0 0 0 3-3V20a3 3 0 0 0-3-3H8a3 3 0 0 0-3 3v4A3 3 0 0 0 8 27zM7 20a1 1 0 0 1 1-1H24a1 1 0 0 1 1 1v4a1 1 0 0 1-1 1H8a1 1 0 0 1-1-1z" data-name="Layer 5" fill="#000000" class="color000 svgShape"></path></svg></g></svg>