<?xml version="1.0" standalone="no"?>
<!DOCTYPE svg PUBLIC "-//W3C//DTD SVG 20010904//EN"
 "http://www.w3.org/TR/2001/REC-SVG-20010904/DTD/svg10.dtd">
<svg version="1.0" xmlns="http://www.w3.org/2000/svg"
 width="256.000000pt" height="256.000000pt" viewBox="0 0 256.000000 256.000000"
 preserveAspectRatio="xMidYMid meet">

<g transform="translate(0.000000,256.000000) scale(0.100000,-0.100000)"
fill="#000000" stroke="none">
<path d="M1158 2340 c-158 -20 -340 -88 -475 -177 -72 -48 -192 -160 -248
-233 -146 -191 -218 -407 -218 -650 0 -303 113 -565 334 -775 306 -290 768
-372 1150 -204 357 156 594 481 640 874 27 234 -39 492 -179 704 -50 76 -171
201 -252 261 -73 54 -214 128 -295 154 -134 42 -328 62 -457 46z m292 -224
c167 -35 308 -112 431 -235 167 -168 249 -364 249 -601 0 -237 -82 -433 -249
-601 -179 -178 -378 -255 -636 -246 -113 3 -142 8 -225 36 -302 102 -511 336
-577 646 -23 110 -13 306 22 415 96 301 331 516 640 585 79 18 263 18 345 1z"/>
<path d="M1224 1901 c-49 -30 -54 -59 -54 -330 l0 -246 -146 -145 c-80 -80
-152 -157 -160 -172 -40 -77 9 -158 97 -158 29 0 55 21 228 195 l196 195 3
282 c4 317 0 348 -51 378 -40 25 -73 25 -113 1z"/>
</g>
</svg>
