<?xml version="1.0" standalone="no"?>
<!DOCTYPE svg PUBLIC "-//W3C//DTD SVG 20010904//EN"
 "http://www.w3.org/TR/2001/REC-SVG-20010904/DTD/svg10.dtd">
<svg version="1.0" xmlns="http://www.w3.org/2000/svg"
 width="256.000000pt" height="256.000000pt" viewBox="0 0 256.000000 256.000000"
 preserveAspectRatio="xMidYMid meet">

<g transform="translate(0.000000,256.000000) scale(0.100000,-0.100000)"
fill="#000000" stroke="none">
<path d="M2073 2463 c-17 -10 -300 -309 -629 -665 -328 -357 -601 -648 -606
-648 -5 0 -99 72 -209 161 -241 193 -264 209 -301 209 -46 0 -96 -26 -118 -62
-25 -41 -26 -104 -2 -139 16 -25 488 -410 570 -465 46 -31 106 -32 149 -2 17
13 321 337 674 721 443 479 648 709 657 733 38 110 -83 213 -185 157z"/>
<path d="M2185 1506 c-16 -8 -277 -262 -579 -564 l-549 -550 -221 177 c-122
98 -231 183 -243 189 -33 18 -94 14 -130 -8 -57 -34 -78 -106 -51 -166 12 -26
515 -438 590 -484 37 -22 73 -25 115 -9 29 10 1173 1144 1224 1213 84 113 -30
259 -156 202z"/>
</g>
</svg>
