<?xml version="1.0" standalone="no"?>
<!DOCTYPE svg PUBLIC "-//W3C//DTD SVG 20010904//EN"
 "http://www.w3.org/TR/2001/REC-SVG-20010904/DTD/svg10.dtd">
<svg version="1.0" xmlns="http://www.w3.org/2000/svg"
 width="500.000000pt" height="500.000000pt" viewBox="0 0 500.000000 500.000000"
 preserveAspectRatio="xMidYMid meet">

<g transform="translate(0.000000,500.000000) scale(0.100000,-0.100000)"
fill="#000000" stroke="none">
<path d="M2771 4984 c-20 -15 -23 -23 -19 -63 3 -25 29 -99 58 -164 29 -65 51
-119 49 -121 -2 -1 -159 -74 -348 -161 -189 -88 -346 -166 -350 -175 -3 -8 -5
-44 -4 -80 6 -291 392 -628 1045 -913 l107 -47 73 35 c40 19 77 35 83 35 6 0
38 -54 70 -121 63 -127 90 -159 134 -159 57 0 52 -9 397 706 311 644 324 674
324 721 0 78 -38 136 -108 167 -40 17 -1131 288 -1332 331 -142 30 -149 30
-179 9z"/>
<path d="M1875 4192 c-148 -65 -297 -136 -330 -159 -229 -157 -417 -430 -470
-684 -23 -108 -30 -277 -16 -398 32 -268 109 -429 298 -617 145 -143 355 -288
631 -434 45 -24 82 -46 82 -49 0 -3 -57 -33 -125 -65 -69 -33 -125 -62 -124
-65 0 -3 252 -181 560 -394 462 -321 562 -387 574 -377 32 27 -9 -109 -55
-180 -29 -46 -131 -149 -200 -203 l-35 -28 70 32 c39 17 171 76 294 130 259
116 303 142 410 244 194 186 307 434 341 753 31 285 -77 608 -271 816 -79 84
-148 137 -279 211 -47 26 -175 100 -284 163 l-200 116 112 52 c62 29 112 55
112 58 0 11 -1045 839 -1057 839 -18 0 -16 14 7 64 31 70 78 133 159 216 41
42 73 77 71 76 -3 0 -126 -53 -275 -117z"/>
<path d="M1270 1481 c-129 -59 -263 -122 -298 -141 -137 -73 -269 -229 -326
-385 -25 -69 -30 -98 -34 -211 -4 -112 -1 -141 17 -209 71 -258 269 -451 531
-516 79 -20 269 -17 350 5 36 10 130 48 210 86 80 37 242 110 360 163 118 53
292 131 385 174 191 89 198 96 198 193 0 194 -187 406 -575 650 -93 58 -561
301 -576 299 -4 0 -113 -49 -242 -108z"/>
</g>
</svg>
